<mxfile host="app.diagrams.net" modified="2023-06-06T00:16:11.036Z" agent="Mozilla/5.0 (Windows NT 10.0; Win64; x64) AppleWebKit/537.36 (KHTML, like Gecko) Chrome/113.0.0.0 Safari/537.36" version="21.3.7" etag="eWgUlQFsWmC6vZC_NcAk" type="github">
  <diagram name="Page-1" id="BNriEESdEpOh80AOPhDi">
    <mxGraphModel>
      <root>
        <mxCell id="0" />
        <mxCell id="1" parent="0" />
      </root>
    </mxGraphModel>
  </diagram>
</mxfile>
